<?xml version="1.0" standalone="no"?>
<!DOCTYPE svg PUBLIC "-//W3C//DTD SVG 20010904//EN"
 "http://www.w3.org/TR/2001/REC-SVG-20010904/DTD/svg10.dtd">
<svg version="1.0" xmlns="http://www.w3.org/2000/svg"
 width="512.000000pt" height="512.000000pt" viewBox="0 0 512.000000 512.000000"
 preserveAspectRatio="xMidYMid meet">
<metadata>
Created by potrace 1.16, written by Peter Selinger 2001-2019
</metadata>
<g transform="translate(0.000000,512.000000) scale(0.100000,-0.100000)"
fill="#000000" stroke="none">
<path d="M930 5102 c-101 -38 -172 -94 -225 -177 -71 -111 -65 94 -65 -2365 0
-2037 1 -2220 17 -2266 43 -129 147 -233 277 -277 45 -16 192 -17 1769 -17
l1719 0 29 29 c39 39 39 92 0 169 -80 159 -82 294 -5 445 l34 67 0 2176 0
2176 -29 29 -29 29 -1724 -1 c-1585 0 -1727 -2 -1768 -17z m3330 -2222 l0
-2020 -1642 -2 -1643 -3 -55 -22 c-30 -13 -56 -23 -57 -23 -2 0 -3 882 -3
1960 0 1750 2 1965 16 1998 20 49 60 90 109 113 38 18 104 19 1658 19 l1617 0
0 -2020z m-60 -2242 c0 -2 -7 -28 -15 -58 -19 -70 -19 -238 -1 -307 l14 -53
-1586 0 c-1513 0 -1589 1 -1627 19 -184 83 -152 351 46 390 37 7 3169 16 3169
9z"/>
<path d="M2426 3829 c-80 -19 -169 -71 -241 -141 l-70 -69 -50 6 c-78 9 -202
-17 -287 -61 -322 -168 -386 -598 -125 -854 l46 -46 4 -354 c2 -245 7 -367 16
-392 26 -81 123 -176 204 -200 61 -19 1213 -19 1274 0 81 24 178 119 204 200
9 25 14 147 16 392 l4 354 46 46 c170 167 211 425 100 634 -45 84 -136 173
-225 220 -85 44 -209 70 -287 61 l-50 -6 -70 69 c-73 72 -160 122 -245 141
-54 13 -210 12 -264 0z m241 -230 c111 -42 186 -140 204 -265 5 -36 14 -74 19
-84 31 -58 119 -68 172 -21 32 28 33 32 33 105 -1 64 2 75 15 72 8 -2 33 -7
55 -11 56 -9 104 -37 152 -87 120 -124 117 -322 -7 -435 -24 -21 -58 -52 -76
-69 l-34 -32 0 -211 0 -211 -640 0 -640 0 0 211 0 211 -34 31 c-18 18 -52 49
-76 70 -124 113 -127 311 -7 435 48 50 96 78 152 87 22 4 47 9 55 11 13 3 16
-8 15 -72 0 -73 1 -77 33 -105 53 -47 141 -37 172 21 5 10 14 48 19 84 18 123
88 216 197 261 74 31 145 32 221 4z m530 -1535 c-6 -77 -27 -113 -78 -131 -25
-9 -178 -12 -559 -12 -381 0 -534 3 -559 12 -51 18 -72 54 -78 131 l-6 66 643
0 643 0 -6 -66z"/>
</g>
</svg>
